<mxfile host="app.diagrams.net" modified="2023-08-02T00:51:09.600Z" agent="Mozilla/5.0 (Macintosh; Intel Mac OS X 10_15_7) AppleWebKit/537.36 (KHTML, like Gecko) Chrome/115.0.0.0 Safari/537.36" etag="qeAsoo-qsj1J0W8BtDku" version="21.6.6" type="github">
  <diagram name="Página-1" id="-VrlVhJm2PSnxyNxONQO">
    <mxGraphModel dx="954" dy="585" grid="1" gridSize="10" guides="1" tooltips="1" connect="1" arrows="1" fold="1" page="1" pageScale="1" pageWidth="827" pageHeight="1169" math="0" shadow="0">
      <root>
        <mxCell id="0" />
        <mxCell id="1" parent="0" />
        <mxCell id="XSg_Y_40YMTepBmQyfV4-10" value="Users" style="swimlane;fontStyle=0;childLayout=stackLayout;horizontal=1;startSize=30;horizontalStack=0;resizeParent=1;resizeParentMax=0;resizeLast=0;collapsible=1;marginBottom=0;whiteSpace=wrap;html=1;" vertex="1" parent="1">
          <mxGeometry x="415" y="230" width="140" height="60" as="geometry" />
        </mxCell>
        <mxCell id="XSg_Y_40YMTepBmQyfV4-14" value="PlayerProfile" style="swimlane;fontStyle=0;childLayout=stackLayout;horizontal=1;startSize=30;horizontalStack=0;resizeParent=1;resizeParentMax=0;resizeLast=0;collapsible=1;marginBottom=0;whiteSpace=wrap;html=1;" vertex="1" parent="1">
          <mxGeometry x="630" y="350" width="140" height="60" as="geometry" />
        </mxCell>
        <mxCell id="XSg_Y_40YMTepBmQyfV4-18" value="Sessions" style="swimlane;fontStyle=0;childLayout=stackLayout;horizontal=1;startSize=30;horizontalStack=0;resizeParent=1;resizeParentMax=0;resizeLast=0;collapsible=1;marginBottom=0;whiteSpace=wrap;html=1;" vertex="1" parent="1">
          <mxGeometry x="70" y="20" width="140" height="60" as="geometry" />
        </mxCell>
        <mxCell id="XSg_Y_40YMTepBmQyfV4-27" value="Informações do usuário 42.&lt;br&gt;Ex: Email, Login na Intra" style="text;html=1;align=center;verticalAlign=middle;resizable=0;points=[];autosize=1;strokeColor=none;fillColor=none;" vertex="1" parent="1">
          <mxGeometry x="400" y="300" width="170" height="40" as="geometry" />
        </mxCell>
        <mxCell id="XSg_Y_40YMTepBmQyfV4-28" value="Dados específicos do jogo para aquele usuário.&lt;br&gt;Ex: Avatar, NickName" style="text;html=1;align=center;verticalAlign=middle;resizable=0;points=[];autosize=1;strokeColor=none;fillColor=none;" vertex="1" parent="1">
          <mxGeometry x="570" y="430" width="280" height="40" as="geometry" />
        </mxCell>
        <mxCell id="XSg_Y_40YMTepBmQyfV4-29" value="Dados da 2FA para um usuário&lt;br&gt;Ex: Secret do OTP, se 2FA está autenticado/habilitado" style="text;html=1;align=center;verticalAlign=middle;resizable=0;points=[];autosize=1;strokeColor=none;fillColor=none;" vertex="1" parent="1">
          <mxGeometry x="140" y="430" width="310" height="40" as="geometry" />
        </mxCell>
        <mxCell id="XSg_Y_40YMTepBmQyfV4-30" value="Tabela é usada para controlar as sessões, &lt;br&gt;após o login com OAuth2&lt;br&gt;Não tem relação com as demais entidades,&lt;br&gt;e é totalmente controlada pelo framework&lt;br&gt;" style="text;html=1;align=center;verticalAlign=middle;resizable=0;points=[];autosize=1;strokeColor=none;fillColor=none;" vertex="1" parent="1">
          <mxGeometry x="30" y="90" width="250" height="70" as="geometry" />
        </mxCell>
        <mxCell id="XSg_Y_40YMTepBmQyfV4-32" value="" style="edgeStyle=entityRelationEdgeStyle;fontSize=12;html=1;endArrow=ERmandOne;startArrow=ERmandOne;rounded=0;" edge="1" parent="1">
          <mxGeometry width="100" height="100" relative="1" as="geometry">
            <mxPoint x="560" y="260" as="sourcePoint" />
            <mxPoint x="620" y="380" as="targetPoint" />
            <Array as="points">
              <mxPoint x="610" y="200" />
            </Array>
          </mxGeometry>
        </mxCell>
        <mxCell id="XSg_Y_40YMTepBmQyfV4-34" value="" style="edgeStyle=entityRelationEdgeStyle;fontSize=12;html=1;endArrow=ERmandOne;startArrow=ERmandOne;rounded=0;" edge="1" parent="1" source="XSg_Y_40YMTepBmQyfV4-2">
          <mxGeometry width="100" height="100" relative="1" as="geometry">
            <mxPoint x="280" y="370" as="sourcePoint" />
            <mxPoint x="410" y="260" as="targetPoint" />
          </mxGeometry>
        </mxCell>
        <mxCell id="XSg_Y_40YMTepBmQyfV4-2" value="2FA" style="swimlane;fontStyle=0;childLayout=stackLayout;horizontal=1;startSize=30;horizontalStack=0;resizeParent=1;resizeParentMax=0;resizeLast=0;collapsible=1;marginBottom=0;whiteSpace=wrap;html=1;" vertex="1" parent="1">
          <mxGeometry x="210" y="350" width="140" height="60" as="geometry" />
        </mxCell>
        <mxCell id="XSg_Y_40YMTepBmQyfV4-36" value="1:1" style="text;strokeColor=none;fillColor=none;spacingLeft=4;spacingRight=4;overflow=hidden;rotatable=0;points=[[0,0.5],[1,0.5]];portConstraint=eastwest;fontSize=12;whiteSpace=wrap;html=1;" vertex="1" parent="1">
          <mxGeometry x="340" y="300" width="40" height="30" as="geometry" />
        </mxCell>
        <mxCell id="XSg_Y_40YMTepBmQyfV4-37" value="1:1" style="text;strokeColor=none;fillColor=none;spacingLeft=4;spacingRight=4;overflow=hidden;rotatable=0;points=[[0,0.5],[1,0.5]];portConstraint=eastwest;fontSize=12;whiteSpace=wrap;html=1;" vertex="1" parent="1">
          <mxGeometry x="610" y="300" width="40" height="30" as="geometry" />
        </mxCell>
      </root>
    </mxGraphModel>
  </diagram>
</mxfile>
